<?xml version="1.0" encoding="UTF-8"?>
<svg xmlns="http://www.w3.org/2000/svg" xmlns:xlink="http://www.w3.org/1999/xlink" viewBox="0 0 100 100" width="100px" height="100px">
<g id="surface36186495">
<path style=" stroke:none;fill-rule:nonzero;fill:rgb(33.333334%,28.627452%,22.745098%);fill-opacity:1;" d="M 50 16 C 68.777344 16 84 31.222656 84 50 C 84 65.097656 74.15625 77.886719 60.542969 82.324219 C 60.546875 82.3125 60.550781 82.292969 60.550781 82.292969 C 60.550781 82.292969 58.257812 81.21875 58.304688 79.296875 C 58.359375 77.1875 58.304688 72.257812 58.304688 70.445312 C 58.304688 67.339844 56.339844 65.136719 56.339844 65.136719 C 56.339844 65.136719 71.757812 65.3125 71.757812 48.859375 C 71.757812 42.511719 68.441406 39.210938 68.441406 39.210938 C 68.441406 39.210938 70.183594 32.433594 67.835938 29.558594 C 65.207031 29.277344 60.496094 32.074219 58.484375 33.378906 C 58.484375 33.378906 55.300781 32.074219 49.996094 32.074219 C 44.699219 32.074219 41.511719 33.378906 41.511719 33.378906 C 39.5 32.074219 34.789062 29.277344 32.160156 29.558594 C 29.8125 32.433594 31.554688 39.210938 31.554688 39.210938 C 31.554688 39.210938 28.238281 42.515625 28.238281 48.859375 C 28.238281 65.3125 43.65625 65.136719 43.65625 65.136719 C 43.65625 65.136719 42.101562 66.894531 41.765625 69.472656 C 40.6875 69.839844 39.105469 70.289062 37.824219 70.289062 C 34.480469 70.289062 31.933594 67.039062 31.003906 65.53125 C 30.082031 64.046875 28.195312 62.800781 26.441406 62.800781 C 25.28125 62.800781 24.71875 63.378906 24.71875 64.042969 C 24.71875 64.703125 26.339844 65.164062 27.410156 66.390625 C 29.671875 68.980469 29.628906 74.796875 37.675781 74.796875 C 38.550781 74.796875 40.335938 74.582031 41.675781 74.398438 C 41.667969 76.230469 41.664062 78.164062 41.695312 79.292969 C 41.742188 81.214844 39.449219 82.289062 39.449219 82.289062 C 39.449219 82.289062 39.453125 82.308594 39.457031 82.320312 C 25.84375 77.886719 16 65.097656 16 50 C 16 31.222656 31.222656 16 50 16 Z M 50 16 "/>
</g>
</svg>
